<?xml version="1.0" encoding="UTF-8"?>
<svg id="Layer_2" data-name="Layer 2" xmlns="http://www.w3.org/2000/svg" viewBox="0 0 14337.39 3373.4">
  <defs>
    <style>
      .cls-1 {
        fill: #fff;
      }

      .cls-2 {
        fill: #545dd1;
      }
    </style>
  </defs>
  <g id="Layer_1-2" data-name="Layer 1">
    <g>
      <path class="cls-2" d="m3011.13,362.27c289.85,276.55,355.4,800.49,362.28,1324.43-6.88,523.94-72.43,1047.88-362.28,1324.44-276.54,289.85-800.48,355.4-1324.42,362.27-523.94-6.88-1047.86-72.44-1324.43-362.27C72.42,2734.58,6.87,2210.64,0,1686.7,6.88,1162.75,72.44,638.81,362.27,362.27,638.82,72.43,1162.76,6.87,1686.69,0c523.94,6.87,1047.88,72.42,1324.43,362.27Z"/>
      <polygon class="cls-1" points="2520.81 730.9 1629.45 2642.5 1179.66 2642.5 1415.57 2136.49 1283.9 2136.49 956.23 1433.58 1283.9 730.9 1733.69 730.9 1406.02 1433.58 1574.69 1795.32 2071.03 730.9 2520.81 730.9"/>
    </g>
    <g>
      <path class="cls-1" d="m4340.2,2642.5v-706.46l-685.68-1205.15h418.53l468.99,863.79,469-863.79h415.56l-685.68,1205.15v706.46h-400.72Z"/>
      <path class="cls-1" d="m5859.96,2672.18c-263.21,0-456.14-63.82-578.82-191.46-122.73-127.63-184.04-308.2-184.04-541.72s61.82-414.08,185.52-541.72c123.65-127.63,316.12-191.46,577.34-191.46s456.61,63.82,580.31,191.46c123.65,127.65,185.52,308.24,185.52,541.72s-61.36,414.09-184.03,541.72c-122.72,127.63-316.64,191.46-581.8,191.46Zm0-341.36c128.62,0,220.63-29.17,276.05-87.56,55.38-58.34,83.12-159.78,83.12-304.25s-27.74-245.86-83.12-304.25c-55.42-58.34-147.44-87.56-276.05-87.56s-217.71,29.22-273.08,87.56c-55.43,58.4-83.12,159.83-83.12,304.25s27.69,245.91,83.12,304.25c55.38,58.4,146.42,87.56,273.08,87.56Z"/>
      <path class="cls-1" d="m7246.14,2672.18c-168.22,0-299.34-46.98-393.31-141-94.02-93.97-141-231.99-141-414.08v-881.6h400.73v872.69c0,94.99,22.73,163.76,68.27,206.3,45.5,42.57,113.77,63.81,204.82,63.81,69.25,0,133.06-13.81,191.46-41.55,58.35-27.69,108.35-62.34,149.9-103.89v-997.36h400.72v1406.99h-371.04l-14.84-133.57c-59.37,47.49-129.12,86.59-209.27,117.24-80.15,30.66-175.64,46.01-286.44,46.01Z"/>
      <path class="cls-1" d="m9223.01,2672.18c-320.58,0-565.97-86.54-736.14-259.73-170.22-173.14-255.28-409.12-255.28-707.95,0-316.59,82.61-562.96,247.86-739.11,165.21-176.1,412.09-264.18,740.6-264.18,114.74,0,218.17,8.44,310.19,25.23,92.02,16.83,178.56,40.07,259.73,69.75v350.26c-168.22-69.25-348.31-103.89-540.23-103.89-217.71,0-374.01,54.44-469,163.26-94.99,108.86-142.48,275.08-142.48,498.68,0,419.56,205.79,629.3,617.41,629.3,92.99,0,185.01-8.4,276.05-25.24,91-16.79,178.1-42.02,261.21-75.69v353.23c-81.17,25.74-167.71,46.52-259.73,62.34-92.02,15.81-195.44,23.74-310.19,23.74Z"/>
      <path class="cls-1" d="m10597.32,2672.18c-263.21,0-456.14-63.82-578.82-191.46-122.72-127.63-184.04-308.2-184.04-541.72s61.82-414.08,185.52-541.72c123.65-127.63,316.12-191.46,577.34-191.46s456.61,63.82,580.31,191.46c123.65,127.65,185.52,308.24,185.52,541.72s-61.36,414.09-184.03,541.72c-122.73,127.63-316.64,191.46-581.8,191.46Zm0-341.36c128.62,0,220.63-29.17,276.05-87.56,55.38-58.34,83.12-159.78,83.12-304.25s-27.74-245.86-83.12-304.25c-55.42-58.34-147.44-87.56-276.05-87.56s-217.71,29.22-273.08,87.56c-55.43,58.4-83.12,159.83-83.12,304.25s27.69,245.91,83.12,304.25c55.38,58.4,146.42,87.56,273.08,87.56Z"/>
      <path class="cls-1" d="m12051.77,2672.18c-124.67,0-235.98-22.26-333.94-66.79-97.96-44.53-174.67-117.71-230.04-219.66-55.43-101.89-83.12-236.95-83.12-405.18s30.66-309.68,92.02-424.47c61.32-114.74,143.46-201.84,246.37-261.22,102.87-59.36,215.67-89.05,338.39-89.05,154.36,0,285.93,35.62,394.79,106.86v-670.84h400.72v2000.65h-344.32l-23.75-130.61c-61.36,53.43-128.15,93.51-200.36,120.22-72.26,26.72-157.83,40.07-256.76,40.07Zm109.83-293.87c124.67,0,229.53-42.53,314.64-127.63v-641.16c-83.11-73.19-180.09-109.83-290.9-109.83-249.34,0-374.01,160.29-374.01,480.86,0,150.42,30.66,254.31,92.02,311.68,61.31,57.42,147.39,86.08,258.24,86.08Z"/>
      <path class="cls-1" d="m13740.76,2672.18c-243.41,0-436.35-60.85-578.83-182.55-142.48-121.7-213.72-306.2-213.72-553.59,0-223.6,59.83-401.2,179.59-532.82,119.71-131.59,298.31-197.4,535.78-197.4,217.66,0,384.4,56.92,500.16,170.68,115.77,113.82,173.65,262.7,173.65,446.74v255.28h-1018.14c21.75,112.8,73.7,189.97,155.84,231.53,82.09,41.55,198.37,62.34,348.78,62.34,75.18,0,151.85-6.92,230.04-20.79,78.15-13.82,144.94-31.63,200.36-53.42v284.96c-65.3,29.68-141.5,51.94-228.56,66.79-87.1,14.84-182.08,22.26-284.95,22.26Zm-421.51-840.03h667.87v-77.18c0-81.12-23.75-144.94-71.24-191.46-47.49-46.47-127.63-69.76-240.43-69.76-132.6,0-225.13,26.72-277.54,80.15-52.46,53.42-78.66,139.5-78.66,258.24Z"/>
    </g>
  </g>
</svg>